<svg width="678" height="588" viewBox="0 0 678 588" fill="none" xmlns="http://www.w3.org/2000/svg">
<path d="M505.632 0.463009C507.418 0.46302 509.069 1.41601 509.962 2.96301L676.538 291.482C677.431 293.029 677.431 294.935 676.538 296.482L509.962 585C509.069 586.547 507.418 587.5 505.632 587.5L172.479 587.5C170.693 587.5 169.042 586.547 168.149 585L1.57288 296.482C0.679714 294.935 0.67972 293.029 1.57288 291.482L168.149 2.963C169.042 1.416 170.693 0.463003 172.479 0.463008L505.632 0.463009Z" fill="#1E1E1E"/>
<path d="M505.632 0.463009C507.418 0.46302 509.069 1.41601 509.962 2.96301L676.538 291.482C677.431 293.029 677.431 294.935 676.538 296.482L509.962 585C509.069 586.547 507.418 587.5 505.632 587.5L172.479 587.5C170.693 587.5 169.042 586.547 168.149 585L1.57288 296.482C0.679714 294.935 0.67972 293.029 1.57288 291.482L168.149 2.963C169.042 1.416 170.693 0.463003 172.479 0.463008L505.632 0.463009Z" fill="#1E1E1E"/>
</svg>
